<?xml version="1.0" encoding="UTF-8"?>
<svg xmlns="http://www.w3.org/2000/svg" xmlns:xlink="http://www.w3.org/1999/xlink" width="48px" height="48px" viewBox="0 0 48 48" version="1.1">
<g id="surface1">
<path style=" stroke:none;fill-rule:nonzero;fill:rgb(0%,0%,0%);fill-opacity:1;" d="M 24 0 C 10.746094 0 0 10.746094 0 24 C 0 34.605469 6.875 43.601562 16.414062 46.773438 C 17.613281 46.996094 18 46.253906 18 45.621094 L 18 41.152344 C 11.324219 42.605469 9.933594 38.320312 9.933594 38.320312 C 8.84375 35.546875 7.269531 34.808594 7.269531 34.808594 C 5.089844 33.316406 7.433594 33.351562 7.433594 33.351562 C 9.84375 33.519531 11.113281 35.824219 11.113281 35.824219 C 13.253906 39.492188 16.726562 38.433594 18.097656 37.816406 C 18.308594 36.269531 18.933594 35.207031 19.621094 34.609375 C 14.289062 34 8.6875 31.941406 8.6875 22.746094 C 8.6875 20.125 9.625 17.984375 11.15625 16.304688 C 10.910156 15.699219 10.089844 13.257812 11.390625 9.953125 C 11.390625 9.953125 13.40625 9.308594 17.992188 12.414062 C 19.90625 11.882812 21.960938 11.617188 24 11.605469 C 26.039062 11.617188 28.09375 11.882812 30.011719 12.414062 C 34.59375 9.308594 36.605469 9.953125 36.605469 9.953125 C 37.910156 13.261719 37.089844 15.703125 36.84375 16.304688 C 38.382812 17.984375 39.3125 20.128906 39.3125 22.746094 C 39.3125 31.964844 33.699219 33.996094 28.355469 34.589844 C 29.214844 35.335938 30 36.792969 30 39.035156 L 30 45.621094 C 30 46.257812 30.382812 47.007812 31.601562 46.773438 C 41.132812 43.59375 48 34.601562 48 24 C 48 10.746094 37.253906 0 24 0 Z M 24 0 "/>
</g>
</svg>
