<svg width="640" height="480" xmlns="http://www.w3.org/2000/svg" xmlns:svg="http://www.w3.org/2000/svg">
 <!-- Created with SVG-edit - https://github.com/SVG-Edit/svgedit-->
 <g class="layer">
  <title>Layer 1</title>
  <g id="svg_12">
   <ellipse cx="321" cy="241" fill="white" id="svg_1" rx="150" ry="150" stroke="#000000" stroke-width="25"/>
   <ellipse cx="257" cy="189" id="svg_2" rx="30" ry="30" stroke="#000000" stroke-width="10"/>
   <rect height="12" id="svg_3" stroke="#000000" stroke-width="10" width="288" x="178" y="247"/>
   <ellipse cx="379.5" cy="189.5" id="svg_4" rx="30" ry="30" stroke="#000000" stroke-width="10"/>
   <ellipse cx="318.5" cy="216.5" id="svg_5" rx="10" ry="10" stroke="#000000" stroke-width="10"/>
   <rect height="92" id="svg_6" stroke="#000000" stroke-width="10" width="18" x="212" y="254"/>
   <rect height="112" id="svg_7" stroke="#000000" stroke-width="10" width="18" x="271" y="262.5"/>
   <rect height="92" id="svg_10" stroke="#000000" stroke-width="10" width="18" x="410" y="257"/>
   <rect height="112" id="svg_11" stroke="#000000" stroke-width="10" width="18" x="351" y="262.5"/>
  </g>
  <g id="svg_16">
   <rect height="21" id="svg_13" stroke="#000000" stroke-width="10" transform="matrix(0.846233 -0.532813 0.532813 0.846233 3.19436 270.069)" width="47" x="434.09" y="130.41"/>
   <rect height="30" id="svg_14" stroke="#000000" stroke-width="10" transform="matrix(0.508225 0.861225 -0.861225 0.508225 341.866 -386.631)" width="127" x="457.55" y="104.8"/>
  </g>
  <g id="svg_17" transform="rotate(-59.2605 318.5 32.5007)">
   <rect height="21" id="svg_18" stroke="#000000" stroke-width="10" transform="matrix(0.846233 -0.532813 0.532813 0.846233 3.19436 270.069)" width="47" x="333.5" y="-39.87"/>
   <rect height="30" id="svg_19" stroke="#000000" stroke-width="10" transform="matrix(0.508225 0.861225 -0.861225 0.508225 341.866 -386.631)" width="127" x="290.24" y="210.26"/>
  </g>
  <g id="svg_20" transform="rotate(-100.399 151.34 113.501)">
   <rect height="21" id="svg_21" stroke="#000000" stroke-width="10" transform="matrix(0.846233 -0.532813 0.532813 0.846233 3.19436 270.069)" width="47" x="148.88" y="-60.39"/>
   <rect height="30" id="svg_22" stroke="#000000" stroke-width="10" transform="matrix(0.508225 0.861225 -0.861225 0.508225 341.866 -386.631)" width="127" x="275.04" y="395.39"/>
  </g>
  <g id="svg_23" transform="rotate(178.949 137.505 349.501)">
   <rect height="21" id="svg_24" stroke="#000000" stroke-width="10" transform="matrix(0.846233 -0.532813 0.532813 0.846233 3.19436 270.069)" width="47" x="11.43" y="131.95"/>
   <rect height="30" id="svg_25" stroke="#000000" stroke-width="10" transform="matrix(0.508225 0.861225 -0.861225 0.508225 341.866 -386.631)" width="127" x="471.26" y="527.24"/>
  </g>
  <g id="svg_26" transform="rotate(68.3595 499.495 345.506)">
   <rect height="21" id="svg_27" stroke="#000000" stroke-width="10" transform="matrix(0.846233 -0.532813 0.532813 0.846233 3.19436 270.069)" width="47" x="319.89" y="321.44"/>
   <rect height="30" id="svg_28" stroke="#000000" stroke-width="10" transform="matrix(0.508225 0.861225 -0.861225 0.508225 341.866 -386.631)" width="127" x="651.79" y="213.46"/>
  </g>
  <g id="svg_29" transform="rotate(120.245 326.5 446.501)">
   <rect height="21" id="svg_30" stroke="#000000" stroke-width="10" transform="matrix(0.846233 -0.532813 0.532813 0.846233 3.19436 270.069)" width="47" x="119.68" y="314.73"/>
   <rect height="30" id="svg_31" stroke="#000000" stroke-width="10" transform="matrix(0.508225 0.861225 -0.861225 0.508225 341.866 -386.631)" width="127" x="650.85" y="413.78"/>
  </g>
 </g>
</svg>